<?xml version="1.0" standalone="no"?><!DOCTYPE svg PUBLIC "-//W3C//DTD SVG 1.1//EN" "http://www.w3.org/Graphics/SVG/1.1/DTD/svg11.dtd"><svg t="1681118814620" class="icon" viewBox="0 0 1024 1024" version="1.1" xmlns="http://www.w3.org/2000/svg" p-id="14193" xmlns:xlink="http://www.w3.org/1999/xlink" width="200" height="200"><path d="M698.9 244v192.4c0 126.6-102.6 229.2-229.2 229.2h107.1C703.4 665.6 806 563 806 436.4V244H698.9zM793.5 779.4H316.4c-25.3 0-45.9-20.5-45.9-45.9v-15.3c0-25.3 20.5-45.9 45.9-45.9h477.1c25.3 0 45.9 20.5 45.9 45.9v15.3c0 25.3-20.6 45.9-45.9 45.9z" fill="#BEECFD" p-id="14194"></path><path d="M819.3 486.5h-13.4c-8.3 0-15-6.7-15-15s6.7-15 15-15h13.4c43.4 0 78.7-35.3 78.7-78.7s-35.3-78.7-78.7-78.7h-13.4c-8.3 0-15-6.7-15-15s6.7-15 15-15h13.4c59.9 0 108.7 48.8 108.7 108.7s-48.8 108.7-108.7 108.7z" fill="" p-id="14195"></path><path d="M576.7 680.6H379.3c-58.7 0-115.4-21.1-159.7-59.5-43.9-38-72.9-90.3-81.6-147.3-1.3-8.2 4.4-15.8 12.5-17.1 8.2-1.3 15.8 4.4 17.1 12.5 7.7 50 33.1 95.9 71.6 129.2 38.9 33.6 88.6 52.2 140.1 52.2h197.4c57.2 0 111-22.3 151.5-62.7 40.5-40.5 62.7-94.3 62.7-151.5V259H165.1v27.4c0 8.3-6.7 15-15 15s-15-6.7-15-15V229h685.8v207.4c0 65.2-25.4 126.6-71.5 172.7-46.1 46.1-107.5 71.5-172.7 71.5z" fill="" p-id="14196"></path><path d="M150.1 408.4c-8.3 0-15-6.7-15-15v-35.7c0-8.3 6.7-15 15-15s15 6.7 15 15v35.7c0 8.3-6.7 15-15 15zM718.9 352.7c-8.3 0-15-6.7-15-15V244c0-8.3 6.7-15 15-15s15 6.7 15 15v93.7c0 8.3-6.7 15-15 15z" fill="" p-id="14197"></path><path d="M718.885 331.689l53.174 53.173-53.174 53.174-53.174-53.174z" fill="#6BD549" p-id="14198"></path><path d="M718.9 459.3l-74.4-74.4 74.4-74.4 74.4 74.4-74.4 74.4z m-32-74.4l32 32 32-32-32-32-32 32z" fill="" p-id="14199"></path><path d="M793.5 794.4h-631c-33.6 0-60.9-27.3-60.9-60.9v-15.3c0-33.6 27.3-60.9 60.9-60.9h631c33.6 0 60.9 27.3 60.9 60.9v15.3c0 33.6-27.3 60.9-60.9 60.9z m-631-107.1c-17 0-30.9 13.9-30.9 30.9v15.3c0 17 13.9 30.9 30.9 30.9h631c17 0 30.9-13.9 30.9-30.9v-15.3c0-17-13.9-30.9-30.9-30.9h-631z" fill="" p-id="14200"></path><path d="M424.5 384.5m-20.1 0a20.1 20.1 0 1 0 40.2 0 20.1 20.1 0 1 0-40.2 0Z" fill="#050400" p-id="14201"></path><path d="M544.9 384.5m-20.1 0a20.1 20.1 0 1 0 40.2 0 20.1 20.1 0 1 0-40.2 0Z" fill="#050400" p-id="14202"></path><path d="M484.7 493c-19.2 0-34.9-15.6-34.9-34.9 0-4.5 3.6-8.1 8.1-8.1s8.1 3.6 8.1 8.1c0 10.3 8.4 18.7 18.7 18.7s18.7-8.4 18.7-18.7c0-4.5 3.6-8.1 8.1-8.1s8.1 3.6 8.1 8.1c0 19.3-15.7 34.9-34.9 34.9z" fill="#050400" p-id="14203"></path><path d="M364.3 434.7m-23.4 0a23.4 23.4 0 1 0 46.8 0 23.4 23.4 0 1 0-46.8 0Z" fill="#F8B0CB" p-id="14204"></path><path d="M605.2 434.7m-23.4 0a23.4 23.4 0 1 0 46.8 0 23.4 23.4 0 1 0-46.8 0Z" fill="#F8B0CB" p-id="14205"></path></svg>